<svg xmlns="http://www.w3.org/2000/svg" viewBox="0 0 520 260">
  <defs>
    <linearGradient id="stem" x1="0" y1="0" x2="1" y2="1">
      <stop offset="0" stop-color="#6f765f" stop-opacity=".30"/>
      <stop offset="1" stop-color="#8c9076" stop-opacity=".55"/>
    </linearGradient>
    <linearGradient id="leafA" x1="0" y1="0" x2="1" y2="1">
      <stop offset="0" stop-color="#68725b" stop-opacity=".72"/>
      <stop offset=".55" stop-color="#89927a" stop-opacity=".48"/>
      <stop offset="1" stop-color="#b3b7a5" stop-opacity=".22"/>
    </linearGradient>
    <linearGradient id="leafB" x1="1" y1="0" x2="0" y2="1">
      <stop offset="0" stop-color="#7b846d" stop-opacity=".62"/>
      <stop offset="1" stop-color="#b5b5a3" stop-opacity=".22"/>
    </linearGradient>
    <radialGradient id="olive" cx="35%" cy="30%" r="70%">
      <stop offset="0" stop-color="#a89c76" stop-opacity=".75"/>
      <stop offset="1" stop-color="#696b52" stop-opacity=".55"/>
    </radialGradient>
    <filter id="paper" x="-20%" y="-20%" width="140%" height="140%">
      <feTurbulence type="fractalNoise" baseFrequency=".025" numOctaves="3" seed="6" result="noise"/>
      <feDisplacementMap in="SourceGraphic" in2="noise" scale="1.8"/>
      <feGaussianBlur stdDeviation=".22"/>
    </filter>
  </defs>
  <g filter="url(#paper)">
    <path d="M8 36C116 60 209 92 302 137C375 172 445 207 510 244" fill="none" stroke="url(#stem)" stroke-width="3.2" stroke-linecap="round"/>
    <g stroke="#6f7863" stroke-opacity=".2" stroke-width=".8">
      <path d="M82 59C54 37 39 20 28 4C55 6 76 19 95 45C94 52 90 56 82 59Z" fill="url(#leafA)"/>
      <path d="M110 70C85 78 62 83 39 79C58 57 80 49 107 54C112 59 113 65 110 70Z" fill="url(#leafB)"/>
      <path d="M153 88C126 61 113 42 109 20C135 29 153 46 166 74C164 81 160 86 153 88Z" fill="url(#leafA)"/>
      <path d="M184 101C156 110 132 111 108 104C131 83 157 78 182 86C187 91 188 96 184 101Z" fill="url(#leafB)"/>
      <path d="M230 123C208 94 198 72 198 50C224 64 240 84 247 111C244 117 239 121 230 123Z" fill="url(#leafA)"/>
      <path d="M264 139C238 149 214 149 191 141C214 121 239 116 263 124C268 130 269 135 264 139Z" fill="url(#leafB)"/>
      <path d="M310 160C291 130 284 108 288 87C312 102 327 123 331 150C326 156 320 159 310 160Z" fill="url(#leafA)"/>
      <path d="M346 178C319 187 296 184 274 175C298 157 323 154 346 163C351 168 351 174 346 178Z" fill="url(#leafB)"/>
      <path d="M392 200C374 171 370 149 376 130C399 146 411 166 414 191C408 196 401 199 392 200Z" fill="url(#leafA)"/>
      <path d="M430 219C405 226 382 222 362 211C386 195 410 194 433 203C437 209 436 215 430 219Z" fill="url(#leafB)"/>
    </g>
    <g fill="url(#olive)" stroke="#6d6b52" stroke-opacity=".25" stroke-width=".8">
      <ellipse cx="131" cy="72" rx="11" ry="15" transform="rotate(-25 131 72)"/>
      <ellipse cx="280" cy="137" rx="10" ry="14" transform="rotate(-18 280 137)"/>
      <ellipse cx="416" cy="206" rx="10" ry="14" transform="rotate(-20 416 206)"/>
    </g>
  </g>
</svg>
